<?xml version="1.0" encoding="utf-8"?>
<!-- Generator: Adobe Illustrator 30.0.0, SVG Export Plug-In . SVG Version: 9.03 Build 0)  -->
<svg version="1.0" id="Vrstva_1" xmlns="http://www.w3.org/2000/svg" xmlns:xlink="http://www.w3.org/1999/xlink" x="0px" y="0px"
	 viewBox="0 0 158.5 43.8" style="enable-background:new 0 0 158.5 43.8;" xml:space="preserve">
<style type="text/css">
	.st0{fill-rule:evenodd;clip-rule:evenodd;fill:#D0103A;}
	.st1{fill:#D0103A;}
</style>
<g>
	<path class="st0" d="M13.7,15.3L0,24.9v4.8l13.7-9.6V15.3z M43.3,15.1v28.6H17.7v-7l4-2.8v5.8h17.7V17.2L25.6,7.6V2.8L43.3,15.1z
		 M17.7,22.2L0,34.6v9.2h4v-7.1l17.7-12.4c0-8.1,0-16.2,0-24.3L0,15.1V20L17.7,7.6V22.2z"/>
	<g>
		<path class="st1" d="M59.6,15.2h4.8c2.9,0,4.2,1.8,4.2,4.4c0,2.7-1.6,4.4-4.4,4.4H62v6.2h-2.4V15.2z M62,22.2h1.7
			c1.3,0,2.4-0.7,2.4-2.6c0-1.6-0.7-2.6-2.6-2.6H62V22.2z"/>
		<path class="st1" d="M72.2,15.2h3.1l4,15h-2.5l-0.9-3.7h-4.4l-1,3.7h-2.5L72.2,15.2z M75.4,24.7l-1.7-7.4h0l-1.8,7.4H75.4z"/>
		<path class="st1" d="M78.3,15.2h2.5l2.5,12h0l2.7-12h2.5l-3.8,15h-3.1L78.3,15.2z"/>
		<path class="st1" d="M89.7,15.2h8.1v2h-5.7v4.2h5.4v2h-5.4v4.8H98v2h-8.3V15.2z"/>
		<path class="st1" d="M99.6,15.2h2.4v13h5.8v2h-8.2V15.2z"/>
	</g>
	<g>
		<path class="st1" d="M108.1,25.9h1.3v0.4c0,2,0.5,3.2,2,3.2c1.5,0,2.3-0.6,2.3-3V15.2h1.3v11.3c0,2.6-1.2,4-3.6,4
			c-2.2,0-3.4-1.1-3.4-4V25.9z"/>
		<path class="st1" d="M120.7,15.2h1.7l4.4,15h-1.4l-1.2-4.4h-5.3l-1.2,4.4h-1.4L120.7,15.2z M123.9,24.7l-2.3-8.5h0l-2.3,8.5H123.9
			z"/>
		<path class="st1" d="M128,15.2h4.5c2.5,0,3.9,1.4,3.9,3.8c0,1.8-0.7,3.4-2.7,3.8v0c1.9,0.2,2.5,1.2,2.6,3.6l0,1.6
			c0,0.8,0.1,1.6,0.6,2.2h-1.6c-0.3-0.5-0.4-1.3-0.4-2.1l0-1.3c-0.1-2.7-0.5-3.5-3-3.5h-2.5v6.9H128V15.2z M129.3,22.3h2.3
			c2.1,0,3.4-0.9,3.4-3c0-1.9-0.8-3-3.2-3h-2.5V22.3z"/>
		<path class="st1" d="M143.2,15c3.1,0,4.8,2.4,4.8,7.8s-1.7,7.8-4.8,7.8c-3.1,0-4.8-2.4-4.8-7.8S140.1,15,143.2,15z M143.2,29.4
			c2.1,0,3.5-1.7,3.5-6.6s-1.3-6.6-3.5-6.6c-2.1,0-3.5,1.7-3.5,6.6S141,29.4,143.2,29.4z"/>
		<path class="st1" d="M156.8,19.1c0-1.9-0.8-3-2.7-3c-1.8,0-2.8,1.2-2.8,2.7c0,4.5,7.3,2,7.3,7.3c0,2.9-1.8,4.4-4.6,4.4
			c-2.8,0-4.4-1.5-4.4-4.5v-0.4h1.3v0.6c0,1.9,1,3.2,3,3.2c1.9,0,3.2-0.9,3.2-3.1c0-4.5-7.3-1.9-7.3-7.4c0-2.4,1.5-4,4.2-4
			c2.8,0,4.1,1.4,4.1,4.1H156.8z M152.7,11.2l1.4,2.1l1.4-2.1h1.3l-2.1,3h-1.3l-2-3H152.7z"/>
	</g>
	<g>
		<path class="st1" d="M59.7,35.2h3.4c0.4,0,0.8,0.1,1.1,0.2c0.3,0.1,0.5,0.3,0.7,0.5c0.2,0.2,0.3,0.4,0.4,0.7
			c0.1,0.3,0.1,0.6,0.1,0.8c0,0.6-0.1,1.1-0.4,1.4c-0.2,0.3-0.6,0.5-1.1,0.7v0c0.3,0,0.6,0.1,0.8,0.3c0.2,0.1,0.3,0.3,0.4,0.5
			c0.1,0.2,0.1,0.4,0.2,0.6c0,0.2,0,0.5,0,0.8c0,0.4,0,0.8,0,1c0,0.2,0,0.4,0.1,0.6c0,0.1,0.1,0.2,0.1,0.3s0.1,0.1,0.2,0.1v0.1h-2.2
			c-0.1-0.1-0.1-0.3-0.2-0.6c0-0.3,0-0.6,0-1.1c0-0.4,0-0.7,0-0.9c0-0.2-0.1-0.4-0.1-0.6c-0.1-0.1-0.1-0.2-0.3-0.3
			c-0.1,0-0.2-0.1-0.4-0.1h-0.8v3.5h-2V35.2z M61.7,38.8h0.6c0.2,0,0.4,0,0.5-0.1c0.1-0.1,0.2-0.2,0.3-0.3c0.1-0.1,0.1-0.2,0.2-0.4
			c0-0.1,0-0.3,0-0.4c0-0.3-0.1-0.6-0.2-0.8c-0.1-0.2-0.4-0.3-0.8-0.3h-0.6V38.8z"/>
		<path class="st1" d="M67.9,35.2h5v1.6h-2.9v1.7h2.8v1.6h-2.8v2H73v1.6h-5.1V35.2z"/>
		<path class="st1" d="M76.8,35.2h2.5l2.1,8.6h-2.1L79,42.1H77l-0.3,1.6h-2.1L76.8,35.2z M78,36.8L78,36.8l-0.7,3.8h1.5L78,36.8z"/>
		<path class="st1" d="M83.4,35.2h2v6.9h2.9v1.6h-4.9V35.2z"/>
		<path class="st1" d="M90.3,35.2h2v8.6h-2V35.2z"/>
		<path class="st1" d="M96.2,36.8h-1.8v-1.6h5.6v1.6h-1.8v6.9h-2V36.8z"/>
		<path class="st1" d="M103.6,40.4l-2.2-5.2h2.2l1,3.2h0l1-3.2h2.2l-2.2,5.2v3.4h-2V40.4z"/>
	</g>
</g>
</svg>
