<?xml version="1.0" encoding="utf-8"?>
<!-- Generator: Adobe Illustrator 30.0.0, SVG Export Plug-In . SVG Version: 9.03 Build 0)  -->
<svg version="1.0" id="Vrstva_1" xmlns="http://www.w3.org/2000/svg" xmlns:xlink="http://www.w3.org/1999/xlink" x="0px" y="0px"
	 viewBox="0 0 43.3 61.5" style="enable-background:new 0 0 43.3 61.5;" xml:space="preserve">
<style type="text/css">
	.st0{fill-rule:evenodd;clip-rule:evenodd;fill:#D0103A;}
	.st1{fill:#D0103A;}
</style>
<g>
	<path class="st0" d="M13.7,15.3L0,24.9v4.8l13.7-9.6V15.3z M43.3,15.1v28.6H17.7v-7l4-2.8v5.8h17.7V17.2L25.6,7.6V2.8L43.3,15.1z
		 M17.7,22.2L0,34.6v9.2h4v-7.1l17.7-12.4c0-8.1,0-16.2,0-24.3L0,15.1V20L17.7,7.6V22.2z"/>
	<g>
		<path class="st1" d="M0,53.8h3c0.4,0,0.7,0.1,1,0.2c0.3,0.1,0.5,0.3,0.6,0.4c0.2,0.2,0.3,0.4,0.4,0.6c0.1,0.2,0.1,0.5,0.1,0.8
			c0,0.6-0.1,1-0.3,1.3c-0.2,0.3-0.5,0.5-1,0.6v0c0.3,0,0.5,0.1,0.7,0.2c0.2,0.1,0.3,0.2,0.4,0.4S5,58.7,5,58.9s0,0.5,0,0.7
			c0,0.4,0,0.7,0,0.9c0,0.2,0,0.4,0.1,0.5c0,0.1,0.1,0.2,0.1,0.2s0.1,0.1,0.2,0.1v0.1h-2c-0.1-0.1-0.1-0.3-0.2-0.5s0-0.6,0-1
			c0-0.3,0-0.6,0-0.8c0-0.2-0.1-0.4-0.1-0.5C3,58.5,3,58.5,2.9,58.4c-0.1,0-0.2-0.1-0.4-0.1H1.8v3.2H0V53.8z M1.8,57.1h0.6
			c0.2,0,0.3,0,0.5-0.1c0.1-0.1,0.2-0.1,0.3-0.2c0.1-0.1,0.1-0.2,0.1-0.3c0-0.1,0-0.2,0-0.4c0-0.3-0.1-0.5-0.2-0.7
			c-0.1-0.2-0.4-0.3-0.7-0.3H1.8V57.1z"/>
		<path class="st1" d="M7.4,53.8h4.5v1.5H9.2v1.5h2.5v1.5H9.2v1.8H12v1.5H7.4V53.8z"/>
		<path class="st1" d="M15.4,53.8h2.3l1.9,7.7h-1.9l-0.3-1.5h-1.8l-0.3,1.5h-1.9L15.4,53.8z M16.5,55.2L16.5,55.2l-0.7,3.4h1.3
			L16.5,55.2z"/>
		<path class="st1" d="M21.3,53.8h1.8v6.2h2.6v1.5h-4.4V53.8z"/>
		<path class="st1" d="M27.5,53.8h1.8v7.7h-1.8V53.8z"/>
		<path class="st1" d="M32.8,55.3h-1.6v-1.5h5v1.5h-1.6v6.2h-1.8V55.3z"/>
		<path class="st1" d="M39.5,58.5l-2-4.7h2l0.9,2.9h0l0.9-2.9h1.9l-2,4.7v3h-1.8V58.5z"/>
	</g>
</g>
</svg>
